<mxfile host="app.diagrams.net" modified="2024-02-27T11:11:33.480Z" agent="Mozilla/5.0 (Macintosh; Intel Mac OS X 10_15_7) AppleWebKit/537.36 (KHTML, like Gecko) Chrome/120.0.0.0 Safari/537.36" etag="CWd2H98Y_oxX9MWICokV" version="23.1.7" type="device">
  <diagram name="Page-1" id="e7e014a7-5840-1c2e-5031-d8a46d1fe8dd">
    <mxGraphModel dx="1468" dy="795" grid="1" gridSize="10" guides="1" tooltips="1" connect="1" arrows="1" fold="1" page="1" pageScale="1" pageWidth="1169" pageHeight="826" background="none" math="0" shadow="0">
      <root>
        <mxCell id="0" />
        <mxCell id="1" parent="0" />
        <mxCell id="2" value="Kunde" style="swimlane;whiteSpace=wrap" parent="1" vertex="1">
          <mxGeometry y="126" width="600" height="704" as="geometry" />
        </mxCell>
        <mxCell id="5" value="" style="ellipse;shape=startState;fillColor=#000000;strokeColor=#ff0000;" parent="2" vertex="1">
          <mxGeometry x="490" y="34" width="30" height="30" as="geometry" />
        </mxCell>
        <mxCell id="6" value="" style="edgeStyle=elbowEdgeStyle;elbow=horizontal;verticalAlign=bottom;endArrow=open;endSize=8;strokeColor=#FF0000;endFill=1;rounded=0" parent="2" source="5" target="7" edge="1">
          <mxGeometry x="100" y="40" as="geometry">
            <mxPoint x="115" y="110" as="targetPoint" />
          </mxGeometry>
        </mxCell>
        <mxCell id="7" value="Aufruf der Website" style="" parent="2" vertex="1">
          <mxGeometry x="450" y="94" width="110" height="50" as="geometry" />
        </mxCell>
        <mxCell id="64YXDJkvrD21cxUWK2oo-95" value="" style="edgeStyle=orthogonalEdgeStyle;rounded=0;orthogonalLoop=1;jettySize=auto;html=1;" edge="1" parent="2" source="64YXDJkvrD21cxUWK2oo-86" target="64YXDJkvrD21cxUWK2oo-94">
          <mxGeometry relative="1" as="geometry" />
        </mxCell>
        <mxCell id="64YXDJkvrD21cxUWK2oo-86" value="Loginformular anzeigen" style="whiteSpace=wrap;html=1;rounded=1;" vertex="1" parent="2">
          <mxGeometry x="450" y="170" width="110" height="52" as="geometry" />
        </mxCell>
        <mxCell id="64YXDJkvrD21cxUWK2oo-98" value="Einloggen" style="edgeStyle=orthogonalEdgeStyle;rounded=0;orthogonalLoop=1;jettySize=auto;html=1;" edge="1" parent="2" source="64YXDJkvrD21cxUWK2oo-94" target="64YXDJkvrD21cxUWK2oo-97">
          <mxGeometry x="-0.1111" y="-12" relative="1" as="geometry">
            <mxPoint as="offset" />
          </mxGeometry>
        </mxCell>
        <mxCell id="64YXDJkvrD21cxUWK2oo-100" value="Registrieren" style="edgeStyle=orthogonalEdgeStyle;rounded=0;orthogonalLoop=1;jettySize=auto;html=1;exitX=0.5;exitY=0;exitDx=0;exitDy=0;" edge="1" parent="2" source="64YXDJkvrD21cxUWK2oo-94" target="64YXDJkvrD21cxUWK2oo-99">
          <mxGeometry x="-0.6149" y="10" relative="1" as="geometry">
            <Array as="points">
              <mxPoint x="360" y="114" />
              <mxPoint x="40" y="114" />
              <mxPoint x="40" y="443" />
            </Array>
            <mxPoint as="offset" />
          </mxGeometry>
        </mxCell>
        <mxCell id="64YXDJkvrD21cxUWK2oo-94" value="" style="rhombus;whiteSpace=wrap;html=1;rounded=1;" vertex="1" parent="2">
          <mxGeometry x="330" y="168" width="60" height="56" as="geometry" />
        </mxCell>
        <mxCell id="64YXDJkvrD21cxUWK2oo-97" value="Loginformular ausf端llen" style="whiteSpace=wrap;html=1;rounded=1;" vertex="1" parent="2">
          <mxGeometry x="110" y="169" width="130" height="54" as="geometry" />
        </mxCell>
        <mxCell id="64YXDJkvrD21cxUWK2oo-99" value="Registrierungsformular ausf端llen" style="whiteSpace=wrap;html=1;rounded=1;" vertex="1" parent="2">
          <mxGeometry x="110" y="414" width="130" height="58" as="geometry" />
        </mxCell>
        <mxCell id="64YXDJkvrD21cxUWK2oo-103" value="Daten (inkl. Session) in die DB schreiben" style="whiteSpace=wrap;html=1;rounded=1;" vertex="1" parent="2">
          <mxGeometry x="1040" y="414" width="120" height="60" as="geometry" />
        </mxCell>
        <mxCell id="64YXDJkvrD21cxUWK2oo-104" value="" style="edgeStyle=orthogonalEdgeStyle;rounded=0;orthogonalLoop=1;jettySize=auto;html=1;" edge="1" parent="2" source="64YXDJkvrD21cxUWK2oo-99" target="64YXDJkvrD21cxUWK2oo-103">
          <mxGeometry relative="1" as="geometry">
            <Array as="points">
              <mxPoint x="570" y="443" />
              <mxPoint x="570" y="443" />
            </Array>
          </mxGeometry>
        </mxCell>
        <mxCell id="64YXDJkvrD21cxUWK2oo-107" value="" style="endArrow=classic;html=1;rounded=0;entryX=1;entryY=0.5;entryDx=0;entryDy=0;" edge="1" parent="2" source="64YXDJkvrD21cxUWK2oo-103" target="64YXDJkvrD21cxUWK2oo-89">
          <mxGeometry width="50" height="50" relative="1" as="geometry">
            <mxPoint x="750" y="536" as="sourcePoint" />
            <mxPoint x="820" y="552.7500000000002" as="targetPoint" />
            <Array as="points">
              <mxPoint x="1100" y="553" />
            </Array>
          </mxGeometry>
        </mxCell>
        <mxCell id="64YXDJkvrD21cxUWK2oo-120" value="" style="edgeStyle=orthogonalEdgeStyle;rounded=0;orthogonalLoop=1;jettySize=auto;html=1;" edge="1" parent="2" source="64YXDJkvrD21cxUWK2oo-89" target="64YXDJkvrD21cxUWK2oo-119">
          <mxGeometry relative="1" as="geometry" />
        </mxCell>
        <mxCell id="64YXDJkvrD21cxUWK2oo-89" value="Anzeigen der Shopseite" style="whiteSpace=wrap;html=1;rounded=1;" vertex="1" parent="2">
          <mxGeometry x="440" y="526" width="110" height="53.5" as="geometry" />
        </mxCell>
        <mxCell id="64YXDJkvrD21cxUWK2oo-119" value="" style="ellipse;html=1;shape=endState;fillColor=#000000;strokeColor=#ff0000;" vertex="1" parent="2">
          <mxGeometry x="480" y="634" width="30" height="30" as="geometry" />
        </mxCell>
        <mxCell id="3" value="Programm" style="swimlane;whiteSpace=wrap" parent="1" vertex="1">
          <mxGeometry x="600" y="126" width="595.5" height="704" as="geometry" />
        </mxCell>
        <mxCell id="64YXDJkvrD21cxUWK2oo-85" value="" style="edgeStyle=orthogonalEdgeStyle;rounded=0;orthogonalLoop=1;jettySize=auto;html=1;" edge="1" parent="3" source="64YXDJkvrD21cxUWK2oo-82" target="64YXDJkvrD21cxUWK2oo-84">
          <mxGeometry relative="1" as="geometry" />
        </mxCell>
        <mxCell id="64YXDJkvrD21cxUWK2oo-82" value="Loginstatus pr端fen" style="rounded=1;whiteSpace=wrap;html=1;" vertex="1" parent="3">
          <mxGeometry x="35" y="104" width="115" height="30" as="geometry" />
        </mxCell>
        <mxCell id="64YXDJkvrD21cxUWK2oo-84" value="" style="rhombus;whiteSpace=wrap;html=1;rounded=1;" vertex="1" parent="3">
          <mxGeometry x="61.25" y="168" width="62.5" height="56" as="geometry" />
        </mxCell>
        <mxCell id="64YXDJkvrD21cxUWK2oo-102" value="eingeloggt" style="edgeLabel;html=1;align=center;verticalAlign=middle;resizable=0;points=[];" vertex="1" connectable="0" parent="3">
          <mxGeometry x="170.00333333333322" y="184.0000000000001" as="geometry" />
        </mxCell>
        <mxCell id="64YXDJkvrD21cxUWK2oo-111" value="" style="rhombus;whiteSpace=wrap;html=1;rounded=1;" vertex="1" parent="3">
          <mxGeometry x="255" y="265" width="50" height="48" as="geometry" />
        </mxCell>
        <mxCell id="64YXDJkvrD21cxUWK2oo-112" value="Logindaten pr端fen" style="whiteSpace=wrap;html=1;rounded=1;" vertex="1" parent="3">
          <mxGeometry x="20" y="273" width="120" height="33" as="geometry" />
        </mxCell>
        <mxCell id="64YXDJkvrD21cxUWK2oo-116" value="" style="endArrow=classic;html=1;rounded=0;exitX=1;exitY=0.5;exitDx=0;exitDy=0;entryX=0;entryY=0.5;entryDx=0;entryDy=0;" edge="1" parent="3" source="64YXDJkvrD21cxUWK2oo-112" target="64YXDJkvrD21cxUWK2oo-111">
          <mxGeometry width="50" height="50" relative="1" as="geometry">
            <mxPoint x="80" y="314" as="sourcePoint" />
            <mxPoint x="130" y="264" as="targetPoint" />
          </mxGeometry>
        </mxCell>
        <mxCell id="64YXDJkvrD21cxUWK2oo-41" value="" style="rounded=0;whiteSpace=wrap;html=1;" vertex="1" parent="1">
          <mxGeometry y="98" width="1190" height="28" as="geometry" />
        </mxCell>
        <mxCell id="64YXDJkvrD21cxUWK2oo-42" value="Prozess: Login" style="text;html=1;align=center;verticalAlign=middle;whiteSpace=wrap;rounded=0;" vertex="1" parent="1">
          <mxGeometry x="10" y="96" width="120" height="30" as="geometry" />
        </mxCell>
        <mxCell id="64YXDJkvrD21cxUWK2oo-83" value="" style="edgeStyle=orthogonalEdgeStyle;rounded=0;orthogonalLoop=1;jettySize=auto;html=1;" edge="1" parent="1" source="7" target="64YXDJkvrD21cxUWK2oo-82">
          <mxGeometry relative="1" as="geometry" />
        </mxCell>
        <mxCell id="64YXDJkvrD21cxUWK2oo-87" value="" style="edgeStyle=orthogonalEdgeStyle;rounded=0;orthogonalLoop=1;jettySize=auto;html=1;" edge="1" parent="1" source="64YXDJkvrD21cxUWK2oo-84" target="64YXDJkvrD21cxUWK2oo-86">
          <mxGeometry relative="1" as="geometry" />
        </mxCell>
        <mxCell id="64YXDJkvrD21cxUWK2oo-93" value="nicht eingeloggt" style="edgeLabel;html=1;align=center;verticalAlign=middle;resizable=0;points=[];" vertex="1" connectable="0" parent="64YXDJkvrD21cxUWK2oo-87">
          <mxGeometry x="-0.4753" relative="1" as="geometry">
            <mxPoint x="-16" y="-12" as="offset" />
          </mxGeometry>
        </mxCell>
        <mxCell id="64YXDJkvrD21cxUWK2oo-106" value="" style="endArrow=classic;html=1;rounded=0;" edge="1" parent="1" source="64YXDJkvrD21cxUWK2oo-84" target="64YXDJkvrD21cxUWK2oo-103">
          <mxGeometry width="50" height="50" relative="1" as="geometry">
            <mxPoint x="993.75" y="322.0000000000001" as="sourcePoint" />
            <mxPoint x="930" y="400" as="targetPoint" />
            <Array as="points">
              <mxPoint x="1100" y="322" />
            </Array>
          </mxGeometry>
        </mxCell>
        <mxCell id="64YXDJkvrD21cxUWK2oo-113" value="" style="edgeStyle=orthogonalEdgeStyle;rounded=0;orthogonalLoop=1;jettySize=auto;html=1;" edge="1" parent="1" source="64YXDJkvrD21cxUWK2oo-97" target="64YXDJkvrD21cxUWK2oo-112">
          <mxGeometry relative="1" as="geometry">
            <Array as="points">
              <mxPoint x="170" y="416" />
            </Array>
          </mxGeometry>
        </mxCell>
        <mxCell id="64YXDJkvrD21cxUWK2oo-114" value="" style="endArrow=classic;html=1;rounded=0;exitX=0.5;exitY=0;exitDx=0;exitDy=0;" edge="1" parent="1" source="64YXDJkvrD21cxUWK2oo-111" target="64YXDJkvrD21cxUWK2oo-86">
          <mxGeometry width="50" height="50" relative="1" as="geometry">
            <mxPoint x="680" y="440" as="sourcePoint" />
            <mxPoint x="730" y="390" as="targetPoint" />
            <Array as="points">
              <mxPoint x="880" y="360" />
              <mxPoint x="680" y="360" />
              <mxPoint x="505" y="360" />
            </Array>
          </mxGeometry>
        </mxCell>
        <mxCell id="64YXDJkvrD21cxUWK2oo-115" value="nicht korrekt" style="edgeLabel;html=1;align=center;verticalAlign=middle;resizable=0;points=[];" vertex="1" connectable="0" parent="64YXDJkvrD21cxUWK2oo-114">
          <mxGeometry x="-0.1897" y="1" relative="1" as="geometry">
            <mxPoint x="77" y="-11" as="offset" />
          </mxGeometry>
        </mxCell>
        <mxCell id="64YXDJkvrD21cxUWK2oo-117" value="" style="endArrow=classic;html=1;rounded=0;exitX=0.5;exitY=1;exitDx=0;exitDy=0;" edge="1" parent="1" source="64YXDJkvrD21cxUWK2oo-111">
          <mxGeometry width="50" height="50" relative="1" as="geometry">
            <mxPoint x="910" y="460" as="sourcePoint" />
            <mxPoint x="1040" y="550" as="targetPoint" />
            <Array as="points">
              <mxPoint x="880" y="550" />
            </Array>
          </mxGeometry>
        </mxCell>
        <mxCell id="64YXDJkvrD21cxUWK2oo-118" value="korrekt" style="edgeLabel;html=1;align=center;verticalAlign=middle;resizable=0;points=[];" vertex="1" connectable="0" parent="64YXDJkvrD21cxUWK2oo-117">
          <mxGeometry x="-0.6285" y="-1" relative="1" as="geometry">
            <mxPoint x="19" y="51" as="offset" />
          </mxGeometry>
        </mxCell>
      </root>
    </mxGraphModel>
  </diagram>
</mxfile>
